<mxfile host="app.diagrams.net" modified="2021-02-16T21:57:43.849Z" agent="5.0 (Macintosh; Intel Mac OS X 10_12_6) AppleWebKit/537.36 (KHTML, like Gecko) Chrome/88.0.4324.150 Safari/537.36" etag="YUVPfqiEX6bJniJ2HIk3" version="14.3.2" type="github">
  <diagram id="kQDt8UASR3U3Xn5sgx4U" name="Page-1">
    <mxGraphModel dx="1085" dy="587" grid="1" gridSize="10" guides="1" tooltips="1" connect="1" arrows="1" fold="1" page="1" pageScale="1" pageWidth="850" pageHeight="1100" math="0" shadow="0">
      <root>
        <mxCell id="0" />
        <mxCell id="1" parent="0" />
        <mxCell id="hpRRxQ16-kteXOnVLDoA-1" value="&lt;div style=&quot;text-align: justify&quot;&gt;&lt;span&gt;Abi Lea&lt;/span&gt;&lt;/div&gt;&lt;div style=&quot;text-align: justify&quot;&gt;&lt;br&gt;&lt;/div&gt;&lt;div style=&quot;text-align: justify&quot;&gt;&lt;span&gt;CSC111&lt;/span&gt;&lt;/div&gt;&lt;div style=&quot;text-align: justify&quot;&gt;&lt;br&gt;&lt;/div&gt;&lt;div style=&quot;text-align: justify&quot;&gt;&lt;span&gt;Guessing Game&lt;/span&gt;&lt;/div&gt;&lt;div style=&quot;text-align: justify&quot;&gt;&lt;br&gt;&lt;/div&gt;&lt;div style=&quot;text-align: justify&quot;&gt;&lt;span&gt;2/16/21&lt;/span&gt;&lt;/div&gt;" style="whiteSpace=wrap;html=1;aspect=fixed;align=center;" vertex="1" parent="1">
          <mxGeometry x="20" y="20" width="160" height="160" as="geometry" />
        </mxCell>
        <mxCell id="hpRRxQ16-kteXOnVLDoA-6" style="edgeStyle=orthogonalEdgeStyle;rounded=0;orthogonalLoop=1;jettySize=auto;html=1;entryX=0.5;entryY=0;entryDx=0;entryDy=0;" edge="1" parent="1" source="hpRRxQ16-kteXOnVLDoA-2" target="hpRRxQ16-kteXOnVLDoA-5">
          <mxGeometry relative="1" as="geometry" />
        </mxCell>
        <mxCell id="hpRRxQ16-kteXOnVLDoA-2" value="Start" style="ellipse;whiteSpace=wrap;html=1;" vertex="1" parent="1">
          <mxGeometry x="365" y="40" width="120" height="70" as="geometry" />
        </mxCell>
        <mxCell id="hpRRxQ16-kteXOnVLDoA-8" style="edgeStyle=orthogonalEdgeStyle;rounded=0;orthogonalLoop=1;jettySize=auto;html=1;" edge="1" parent="1" source="hpRRxQ16-kteXOnVLDoA-5" target="hpRRxQ16-kteXOnVLDoA-7">
          <mxGeometry relative="1" as="geometry" />
        </mxCell>
        <mxCell id="hpRRxQ16-kteXOnVLDoA-5" value="Generate a number&lt;br&gt;between 1 and 1000" style="rounded=1;whiteSpace=wrap;html=1;absoluteArcSize=1;arcSize=14;strokeWidth=2;" vertex="1" parent="1">
          <mxGeometry x="338" y="150" width="175" height="70" as="geometry" />
        </mxCell>
        <mxCell id="hpRRxQ16-kteXOnVLDoA-12" style="edgeStyle=orthogonalEdgeStyle;rounded=0;orthogonalLoop=1;jettySize=auto;html=1;" edge="1" parent="1" source="hpRRxQ16-kteXOnVLDoA-7" target="hpRRxQ16-kteXOnVLDoA-11">
          <mxGeometry relative="1" as="geometry" />
        </mxCell>
        <mxCell id="hpRRxQ16-kteXOnVLDoA-35" style="edgeStyle=orthogonalEdgeStyle;rounded=0;orthogonalLoop=1;jettySize=auto;html=1;entryX=0;entryY=0.5;entryDx=0;entryDy=0;exitX=0;exitY=0.5;exitDx=0;exitDy=0;exitPerimeter=0;" edge="1" parent="1" source="hpRRxQ16-kteXOnVLDoA-11" target="hpRRxQ16-kteXOnVLDoA-34">
          <mxGeometry relative="1" as="geometry">
            <mxPoint x="240" y="289.9999999999999" as="targetPoint" />
            <Array as="points">
              <mxPoint x="270" y="410" />
              <mxPoint x="270" y="820" />
            </Array>
          </mxGeometry>
        </mxCell>
        <mxCell id="hpRRxQ16-kteXOnVLDoA-7" value="Prompt user to guess number" style="shape=parallelogram;html=1;strokeWidth=2;perimeter=parallelogramPerimeter;whiteSpace=wrap;rounded=1;arcSize=12;size=0.23;" vertex="1" parent="1">
          <mxGeometry x="300" y="260" width="249.5" height="60" as="geometry" />
        </mxCell>
        <mxCell id="hpRRxQ16-kteXOnVLDoA-18" style="edgeStyle=orthogonalEdgeStyle;rounded=0;orthogonalLoop=1;jettySize=auto;html=1;entryX=0.5;entryY=0;entryDx=0;entryDy=0;entryPerimeter=0;" edge="1" parent="1" source="hpRRxQ16-kteXOnVLDoA-11" target="hpRRxQ16-kteXOnVLDoA-17">
          <mxGeometry relative="1" as="geometry" />
        </mxCell>
        <mxCell id="hpRRxQ16-kteXOnVLDoA-11" value="Guess = number?" style="strokeWidth=2;html=1;shape=mxgraph.flowchart.decision;whiteSpace=wrap;" vertex="1" parent="1">
          <mxGeometry x="348.5" y="360" width="154" height="100" as="geometry" />
        </mxCell>
        <mxCell id="hpRRxQ16-kteXOnVLDoA-23" style="edgeStyle=orthogonalEdgeStyle;rounded=0;orthogonalLoop=1;jettySize=auto;html=1;entryX=0;entryY=0.5;entryDx=0;entryDy=0;" edge="1" parent="1" source="hpRRxQ16-kteXOnVLDoA-17" target="hpRRxQ16-kteXOnVLDoA-21">
          <mxGeometry relative="1" as="geometry" />
        </mxCell>
        <mxCell id="hpRRxQ16-kteXOnVLDoA-27" style="edgeStyle=orthogonalEdgeStyle;rounded=0;orthogonalLoop=1;jettySize=auto;html=1;" edge="1" parent="1" source="hpRRxQ16-kteXOnVLDoA-17" target="hpRRxQ16-kteXOnVLDoA-26">
          <mxGeometry relative="1" as="geometry" />
        </mxCell>
        <mxCell id="hpRRxQ16-kteXOnVLDoA-17" value="Guess &amp;gt; number?" style="strokeWidth=2;html=1;shape=mxgraph.flowchart.decision;whiteSpace=wrap;" vertex="1" parent="1">
          <mxGeometry x="347.75" y="500" width="154" height="100" as="geometry" />
        </mxCell>
        <mxCell id="hpRRxQ16-kteXOnVLDoA-20" value="&lt;font style=&quot;font-size: 18px&quot;&gt;N&lt;/font&gt;" style="text;html=1;align=center;verticalAlign=middle;resizable=0;points=[];autosize=1;" vertex="1" parent="1">
          <mxGeometry x="385" y="470" width="30" height="20" as="geometry" />
        </mxCell>
        <mxCell id="hpRRxQ16-kteXOnVLDoA-32" style="edgeStyle=orthogonalEdgeStyle;rounded=0;orthogonalLoop=1;jettySize=auto;html=1;exitX=1;exitY=0.5;exitDx=0;exitDy=0;entryX=1;entryY=0.5;entryDx=0;entryDy=0;" edge="1" parent="1" source="hpRRxQ16-kteXOnVLDoA-21" target="hpRRxQ16-kteXOnVLDoA-7">
          <mxGeometry relative="1" as="geometry">
            <mxPoint x="655" y="410" as="targetPoint" />
            <Array as="points">
              <mxPoint x="780" y="550" />
              <mxPoint x="780" y="290" />
            </Array>
          </mxGeometry>
        </mxCell>
        <mxCell id="hpRRxQ16-kteXOnVLDoA-21" value="Print &quot;Too high! Guess&lt;br&gt;again!&quot;" style="shape=parallelogram;html=1;strokeWidth=2;perimeter=parallelogramPerimeter;whiteSpace=wrap;rounded=1;arcSize=12;size=0.23;" vertex="1" parent="1">
          <mxGeometry x="540" y="520" width="230" height="60" as="geometry" />
        </mxCell>
        <mxCell id="hpRRxQ16-kteXOnVLDoA-24" value="&lt;font style=&quot;font-size: 18px&quot;&gt;Y&lt;/font&gt;" style="text;html=1;align=center;verticalAlign=middle;resizable=0;points=[];autosize=1;" vertex="1" parent="1">
          <mxGeometry x="510" y="520" width="30" height="20" as="geometry" />
        </mxCell>
        <mxCell id="hpRRxQ16-kteXOnVLDoA-30" style="edgeStyle=orthogonalEdgeStyle;rounded=0;orthogonalLoop=1;jettySize=auto;html=1;entryX=0;entryY=0.5;entryDx=0;entryDy=0;" edge="1" parent="1" source="hpRRxQ16-kteXOnVLDoA-26" target="hpRRxQ16-kteXOnVLDoA-29">
          <mxGeometry relative="1" as="geometry" />
        </mxCell>
        <mxCell id="hpRRxQ16-kteXOnVLDoA-26" value="Guess &amp;lt; number?" style="strokeWidth=2;html=1;shape=mxgraph.flowchart.decision;whiteSpace=wrap;" vertex="1" parent="1">
          <mxGeometry x="347.75" y="640" width="154" height="100" as="geometry" />
        </mxCell>
        <mxCell id="hpRRxQ16-kteXOnVLDoA-28" value="&lt;font style=&quot;font-size: 18px&quot;&gt;N&lt;/font&gt;" style="text;html=1;align=center;verticalAlign=middle;resizable=0;points=[];autosize=1;" vertex="1" parent="1">
          <mxGeometry x="385" y="610" width="30" height="20" as="geometry" />
        </mxCell>
        <mxCell id="hpRRxQ16-kteXOnVLDoA-33" style="edgeStyle=orthogonalEdgeStyle;rounded=0;orthogonalLoop=1;jettySize=auto;html=1;" edge="1" parent="1" source="hpRRxQ16-kteXOnVLDoA-29">
          <mxGeometry relative="1" as="geometry">
            <mxPoint x="780" y="550" as="targetPoint" />
            <Array as="points">
              <mxPoint x="780" y="690" />
            </Array>
          </mxGeometry>
        </mxCell>
        <mxCell id="hpRRxQ16-kteXOnVLDoA-29" value="Print &quot;Too low! Guess&lt;br&gt;again!&quot;" style="shape=parallelogram;html=1;strokeWidth=2;perimeter=parallelogramPerimeter;whiteSpace=wrap;rounded=1;arcSize=12;size=0.23;" vertex="1" parent="1">
          <mxGeometry x="540" y="660" width="230" height="60" as="geometry" />
        </mxCell>
        <mxCell id="hpRRxQ16-kteXOnVLDoA-31" value="&lt;font style=&quot;font-size: 18px&quot;&gt;Y&lt;/font&gt;" style="text;html=1;align=center;verticalAlign=middle;resizable=0;points=[];autosize=1;" vertex="1" parent="1">
          <mxGeometry x="510" y="660" width="30" height="20" as="geometry" />
        </mxCell>
        <mxCell id="hpRRxQ16-kteXOnVLDoA-38" style="edgeStyle=orthogonalEdgeStyle;rounded=0;orthogonalLoop=1;jettySize=auto;html=1;" edge="1" parent="1" source="hpRRxQ16-kteXOnVLDoA-34" target="hpRRxQ16-kteXOnVLDoA-37">
          <mxGeometry relative="1" as="geometry" />
        </mxCell>
        <mxCell id="hpRRxQ16-kteXOnVLDoA-34" value="Print &quot;That&#39;s it!&quot;" style="shape=parallelogram;html=1;strokeWidth=2;perimeter=parallelogramPerimeter;whiteSpace=wrap;rounded=1;arcSize=12;size=0.23;" vertex="1" parent="1">
          <mxGeometry x="306" y="790" width="237.75" height="60" as="geometry" />
        </mxCell>
        <mxCell id="hpRRxQ16-kteXOnVLDoA-36" value="&lt;font style=&quot;font-size: 18px&quot;&gt;Y&lt;/font&gt;" style="text;html=1;align=center;verticalAlign=middle;resizable=0;points=[];autosize=1;" vertex="1" parent="1">
          <mxGeometry x="300" y="380" width="30" height="20" as="geometry" />
        </mxCell>
        <mxCell id="hpRRxQ16-kteXOnVLDoA-43" style="edgeStyle=orthogonalEdgeStyle;rounded=0;orthogonalLoop=1;jettySize=auto;html=1;entryX=0.5;entryY=0;entryDx=0;entryDy=0;entryPerimeter=0;" edge="1" parent="1" source="hpRRxQ16-kteXOnVLDoA-37" target="hpRRxQ16-kteXOnVLDoA-39">
          <mxGeometry relative="1" as="geometry" />
        </mxCell>
        <mxCell id="hpRRxQ16-kteXOnVLDoA-37" value="Prompt user to play again" style="shape=parallelogram;html=1;strokeWidth=2;perimeter=parallelogramPerimeter;whiteSpace=wrap;rounded=1;arcSize=12;size=0.23;" vertex="1" parent="1">
          <mxGeometry x="305.87" y="890" width="237.75" height="60" as="geometry" />
        </mxCell>
        <mxCell id="hpRRxQ16-kteXOnVLDoA-40" style="edgeStyle=orthogonalEdgeStyle;rounded=0;orthogonalLoop=1;jettySize=auto;html=1;entryX=0;entryY=0.5;entryDx=0;entryDy=0;" edge="1" parent="1" source="hpRRxQ16-kteXOnVLDoA-39" target="hpRRxQ16-kteXOnVLDoA-5">
          <mxGeometry relative="1" as="geometry">
            <mxPoint x="220" y="180" as="targetPoint" />
            <Array as="points">
              <mxPoint x="210" y="1040" />
              <mxPoint x="210" y="185" />
            </Array>
          </mxGeometry>
        </mxCell>
        <mxCell id="hpRRxQ16-kteXOnVLDoA-45" style="edgeStyle=orthogonalEdgeStyle;rounded=0;orthogonalLoop=1;jettySize=auto;html=1;entryX=0;entryY=0.5;entryDx=0;entryDy=0;entryPerimeter=0;" edge="1" parent="1" source="hpRRxQ16-kteXOnVLDoA-39" target="hpRRxQ16-kteXOnVLDoA-44">
          <mxGeometry relative="1" as="geometry" />
        </mxCell>
        <mxCell id="hpRRxQ16-kteXOnVLDoA-39" value="Does user want to play&lt;br&gt;again?" style="strokeWidth=2;html=1;shape=mxgraph.flowchart.decision;whiteSpace=wrap;" vertex="1" parent="1">
          <mxGeometry x="337.88" y="990" width="174" height="100" as="geometry" />
        </mxCell>
        <mxCell id="hpRRxQ16-kteXOnVLDoA-42" value="&lt;font style=&quot;font-size: 18px&quot;&gt;Y&lt;/font&gt;" style="text;html=1;align=center;verticalAlign=middle;resizable=0;points=[];autosize=1;" vertex="1" parent="1">
          <mxGeometry x="270" y="1010" width="30" height="20" as="geometry" />
        </mxCell>
        <mxCell id="hpRRxQ16-kteXOnVLDoA-44" value="End" style="strokeWidth=2;html=1;shape=mxgraph.flowchart.terminator;whiteSpace=wrap;" vertex="1" parent="1">
          <mxGeometry x="605" y="1010" width="100" height="60" as="geometry" />
        </mxCell>
        <mxCell id="hpRRxQ16-kteXOnVLDoA-46" value="&lt;font style=&quot;font-size: 18px&quot;&gt;N&lt;/font&gt;" style="text;html=1;align=center;verticalAlign=middle;resizable=0;points=[];autosize=1;" vertex="1" parent="1">
          <mxGeometry x="540" y="1010" width="30" height="20" as="geometry" />
        </mxCell>
      </root>
    </mxGraphModel>
  </diagram>
</mxfile>
